<svg version="1.1" id="Layer_1" xmlns="http://www.w3.org/2000/svg" xmlns:xlink="http://www.w3.org/1999/xlink" x="0px" y="0px"
	 width="100%" viewBox="0 0 1200 1200" enable-background="new 0 0 1200 1200" xml:space="preserve">
<path fill="#EFEFEF" opacity="1.000000" stroke="none" 
	d="
M633.000000,1201.000000 
	C423.500000,1201.000000 214.500000,1200.988403 5.500047,1201.093628 
	C1.750768,1201.095581 0.906084,1200.249023 0.907021,1196.500000 
	C1.006199,799.500000 1.006199,402.500000 0.907021,5.500023 
	C0.906084,1.750933 1.750933,0.906086 5.500023,0.907022 
	C402.500000,1.006185 799.500000,1.006186 1196.500000,0.907022 
	C1200.249023,0.906086 1201.093994,1.750932 1201.093140,5.500023 
	C1200.993896,402.500000 1200.993896,799.500000 1201.093140,1196.500000 
	C1201.093994,1200.249023 1200.249268,1201.095947 1196.500000,1201.093750 
	C1008.833313,1200.987061 821.166687,1201.000000 633.000000,1201.000000 
z"/>
<path fill="#5E4EE3" opacity="1.000000" stroke="none" 
	d="
M180.142609,542.048706 
	C187.087784,492.826813 201.909882,446.612823 224.876312,403.003082 
	C248.898407,357.388824 280.438446,317.681091 318.773010,283.328003 
	C363.087616,243.615997 413.800568,214.883438 470.274963,196.469849 
	C503.002899,185.798813 536.705261,179.596985 571.069214,177.059128 
	C623.855896,173.160645 675.593079,179.298538 726.059509,194.716003 
	C777.061951,210.297211 823.627197,234.752045 865.301758,268.250214 
	C925.595886,316.714905 969.988342,376.830536 997.999817,448.998505 
	C1010.848755,482.102234 1018.679077,516.405823 1023.034729,551.582642 
	C1026.860596,582.481201 1027.104004,613.428284 1023.796082,644.338562 
	C1018.543274,693.423279 1005.713074,740.412964 984.196228,784.992188 
	C956.657959,842.046631 918.236755,890.523315 869.296631,930.535156 
	C817.216187,973.114380 758.201172,1001.713196 692.361877,1015.996826 
	C643.555969,1026.585083 594.465271,1028.769287 544.871948,1022.188232 
	C478.590668,1013.392700 417.602631,990.544739 362.589386,952.845154 
	C289.392120,902.684509 236.311844,836.100098 204.073959,753.186035 
	C191.206482,720.091675 183.343246,685.789001 178.984207,650.611877 
	C175.155853,619.717102 175.133652,588.798157 178.145493,557.851562 
	C178.645203,552.717041 179.441376,547.611328 180.142609,542.048706 
z"/>
<path fill="#EFEFEF" opacity="1.000000" stroke="none" 
	d="
M1000.864502,713.729370 
	C984.715210,769.748230 958.641785,820.181458 921.744141,864.814270 
	C876.377991,919.690979 820.583069,960.417480 754.424683,986.951233 
	C697.858887,1009.637817 639.073730,1019.247253 578.389771,1015.800781 
	C489.771484,1010.767822 410.430023,980.422424 341.197754,924.849243 
	C269.503052,867.299438 222.310440,793.456848 198.685791,704.724365 
	C187.112640,661.256348 183.565125,616.896606 186.662109,571.991943 
	C191.751419,498.199982 215.435104,430.773865 256.271423,369.335449 
	C277.319641,337.668365 302.671875,309.739044 331.610779,285.005707 
	C379.661804,243.937744 434.375244,215.575806 495.264984,199.204391 
	C530.312134,189.781281 566.108459,185.465775 602.469971,185.614197 
	C670.752869,185.892899 735.008606,202.116547 795.304138,233.952942 
	C848.533264,262.058228 893.558167,300.096130 930.184326,347.835693 
	C971.462891,401.639374 998.128479,461.987244 1010.098328,528.832397 
	C1017.080994,567.826965 1017.994263,606.987000 1013.982849,646.281860 
	C1011.664490,668.992065 1007.242493,691.362000 1000.864502,713.729370 
z"/>
<path fill="#5A49E3" opacity="1.000000" stroke="none" 
	d="
M461.851013,449.000000 
	C461.851105,439.504547 461.981567,430.506256 461.783264,421.515167 
	C461.710327,418.208588 462.405121,416.916687 466.091003,416.920868 
	C556.045349,417.023163 645.999756,417.015167 735.954102,416.941223 
	C739.117737,416.938629 740.226501,417.690491 740.219360,421.059204 
	C740.115356,470.034180 740.113281,519.009460 740.220947,567.984436 
	C740.228455,571.417297 739.009277,572.057495 735.909180,572.055115 
	C645.954834,571.985901 556.000366,571.964355 466.046173,572.103821 
	C461.623383,572.110718 461.819763,569.968506 461.823059,566.940369 
	C461.865936,527.793640 461.851227,488.646820 461.851013,449.000000 
z"/>
<path fill="#5B4BE3" opacity="1.000000" stroke="none" 
	d="
M386.202271,719.187744 
	C388.518738,711.650085 390.859039,704.534485 392.841400,697.320496 
	C393.677368,694.278381 394.940125,692.980896 398.295013,693.048584 
	C408.952423,693.263855 419.617523,693.186768 430.278351,693.086792 
	C432.883209,693.062378 434.410065,693.458557 435.308289,696.435242 
	C447.126434,735.601440 459.055206,774.734741 471.142090,813.818848 
	C472.377045,817.812134 471.125519,818.188843 467.695190,818.120117 
	C458.869446,817.943115 450.034027,817.913208 441.210480,818.138123 
	C438.030823,818.219116 436.857178,816.995667 436.268616,814.096558 
	C434.979767,807.747742 433.309875,801.475891 432.041992,795.123413 
	C431.551819,792.667358 430.456604,791.798340 428.028900,791.818237 
	C418.367340,791.897400 408.701813,791.980591 399.044220,791.769348 
	C396.178833,791.706726 395.726440,793.341858 395.264709,795.318848 
	C393.826996,801.475037 392.314758,807.617554 391.071594,813.813599 
	C390.456360,816.880188 389.261658,818.258911 385.835815,818.146851 
	C377.681610,817.880310 369.507324,817.883606 361.352081,818.134094 
	C357.178192,818.262329 356.264648,817.310303 357.568268,813.098206 
	C367.204498,781.962952 376.606110,750.755066 386.202271,719.187744 
z"/>
<path fill="#5C4BE3" opacity="1.000000" stroke="none" 
	d="
M455.004242,493.000000 
	C455.004211,523.659973 454.909607,553.820618 455.110809,583.979248 
	C455.139435,588.270020 453.856201,589.158691 449.817139,589.161377 
	C445.823151,589.164001 444.905029,587.974548 444.911896,584.113342 
	C445.028839,518.128113 445.015930,452.142578 444.931427,386.157288 
	C444.927582,383.131500 445.844208,381.379211 448.443787,379.780945 
	C498.223450,349.175842 547.956604,318.494934 597.644409,287.740875 
	C600.106628,286.216919 601.818848,286.166351 604.320618,287.715363 
	C654.004639,318.478699 703.740540,349.158386 753.520813,379.765778 
	C756.106445,381.355530 757.074036,383.075378 757.070007,386.120087 
	C756.983276,452.272003 756.947693,518.424194 757.123535,584.575806 
	C757.135986,589.261292 754.945435,588.943665 751.724792,589.098083 
	C748.156616,589.269287 746.891724,588.458618 746.900085,584.516907 
	C747.035889,520.864563 746.944275,457.211761 747.103271,393.559570 
	C747.114807,388.926117 745.563416,386.434784 741.681763,384.057739 
	C696.657410,356.485657 651.710876,328.785645 606.867371,300.920380 
	C602.590088,298.262512 599.539124,298.176392 595.211121,300.866211 
	C550.087158,328.910889 504.845154,356.766205 459.552856,384.538544 
	C456.096344,386.657990 454.916595,389.082642 454.931702,393.023346 
	C455.058655,426.181824 455.004150,459.341034 455.004242,493.000000 
z"/>
<path fill="#5B4AE3" opacity="1.000000" stroke="none" 
	d="
M654.538330,338.477417 
	C676.153320,351.806854 697.469910,364.927673 718.786499,378.048492 
	C718.676453,378.320251 718.566406,378.592041 718.456360,378.863800 
	C640.198608,378.863800 561.940857,378.863800 482.203735,378.863800 
	C491.505737,373.090942 499.616302,368.033417 507.750275,363.013794 
	C537.490845,344.660217 567.264893,326.360596 596.944336,307.908844 
	C599.873840,306.087585 601.953125,305.941040 604.968445,307.839752 
	C621.302490,318.125366 637.799316,328.152557 654.538330,338.477417 
z"/>
<path fill="#5B4AE3" opacity="1.000000" stroke="none" 
	d="
M780.352844,729.361206 
	C790.050842,721.566772 800.566040,718.007385 812.729675,720.091248 
	C823.197632,721.884705 829.511841,728.251343 832.913757,737.964355 
	C835.081970,744.155029 836.123718,750.554016 836.142883,757.089966 
	C836.197937,775.918701 836.088867,794.748413 836.234741,813.576172 
	C836.261230,817.004272 835.348206,818.240845 831.777222,818.135742 
	C823.619568,817.895569 815.446106,817.914307 807.287109,818.130554 
	C804.010986,818.217346 803.055298,817.229004 803.087830,813.939819 
	C803.247253,797.778503 803.193054,781.614685 803.129395,765.452026 
	C803.117615,762.465881 802.911987,759.450745 802.453552,756.502136 
	C801.368713,749.525330 799.033752,747.670288 792.118103,747.889709 
	C784.111023,748.143738 778.772766,753.648438 778.772461,761.654114 
	C778.771667,778.983398 778.680847,796.313538 778.848816,813.641235 
	C778.882385,817.100708 777.974854,818.248108 774.424622,818.139282 
	C766.267578,817.889221 758.094238,817.925659 749.934387,818.124939 
	C746.637451,818.205444 745.703186,817.105896 745.715393,813.854126 
	C745.825500,784.528076 745.817871,755.201294 745.724915,725.875122 
	C745.715271,722.834412 746.632935,721.787354 749.703735,721.886536 
	C755.862549,722.085388 762.046997,722.200989 768.191956,721.847778 
	C771.844177,721.637756 773.406372,722.944275 773.612793,726.381897 
	C773.632568,726.710327 773.754395,727.031677 773.817017,727.358582 
	C775.051941,733.805359 775.051636,733.805420 780.352844,729.361206 
z"/>
<path fill="#5B4AE3" opacity="1.000000" stroke="none" 
	d="
M641.000000,410.150330 
	C582.876221,410.150269 525.252319,410.103577 467.628906,410.242249 
	C463.229248,410.252808 461.113678,409.349182 461.856293,404.585205 
	C462.160461,402.634125 461.906555,400.596039 461.906555,398.597534 
	C461.906647,390.053741 466.150909,386.006805 474.879822,386.008575 
	C558.983582,386.025543 643.087463,386.062164 727.190918,385.902710 
	C732.037964,385.893524 735.260925,388.421082 738.935791,390.557068 
	C740.365295,391.387939 740.210999,392.785736 740.158447,394.094635 
	C739.952576,399.219971 742.224182,405.715088 739.282410,409.089722 
	C736.455200,412.332916 729.860901,410.080200 724.937744,410.098969 
	C697.125488,410.205109 669.312622,410.150269 641.000000,410.150330 
z"/>
<path fill="#5B4AE3" opacity="1.000000" stroke="none" 
	d="
M648.274597,807.737793 
	C624.409180,784.039124 628.608337,742.553284 656.251160,726.146118 
	C686.914673,707.946045 725.047729,728.394226 728.107178,764.139526 
	C730.785095,795.427917 711.611450,815.788086 689.198792,819.637329 
	C673.810669,822.280212 660.213928,818.403259 648.274597,807.737793 
z"/>
<path fill="#5B4BE3" opacity="1.000000" stroke="none" 
	d="
M549.814575,782.831726 
	C546.526733,793.203125 543.112976,803.125000 540.250610,813.203552 
	C539.122253,817.176453 537.312378,818.294556 533.315186,818.163940 
	C523.662903,817.848633 513.991882,817.967285 504.331665,818.120117 
	C501.598358,818.163330 500.208527,817.416382 499.316986,814.679077 
	C489.685089,785.106323 479.958130,755.564270 470.150848,726.049133 
	C469.085541,722.843079 469.496277,721.765808 473.136810,721.870300 
	C481.293304,722.104614 489.470306,722.169739 497.620331,721.841431 
	C501.324585,721.692261 502.420532,723.247070 503.176575,726.440430 
	C508.042480,746.992310 513.060486,767.508179 518.044189,788.032104 
	C518.416870,789.567078 518.911560,791.072388 520.205444,792.668213 
	C522.137512,784.478149 524.018677,776.275635 526.013062,768.100708 
	C529.442505,754.043396 533.017761,740.021118 536.350586,725.941162 
	C537.032654,723.059753 538.060547,721.787903 541.259644,721.866821 
	C550.241211,722.088440 559.231689,721.944031 568.959717,721.944031 
	C562.518188,742.401367 556.213806,762.423157 549.814575,782.831726 
z"/>
<path fill="#5A49E3" opacity="1.000000" stroke="none" 
	d="
M582.668091,772.000000 
	C582.668335,756.678589 582.831787,741.854187 582.566589,727.037537 
	C582.490051,722.761047 583.850464,721.700684 587.916382,721.857971 
	C595.898132,722.166626 603.901062,722.024292 611.893005,721.911316 
	C614.419189,721.875610 615.388611,722.617249 615.381836,725.289001 
	C615.306335,755.098206 615.306274,784.907776 615.381042,814.716980 
	C615.387756,817.388245 614.416870,818.127869 611.890930,818.094971 
	C603.399231,817.984192 594.901855,817.919128 586.413513,818.121643 
	C583.129150,818.200012 582.603882,816.783020 582.624390,813.966370 
	C582.725281,800.144897 582.669067,786.322266 582.668091,772.000000 
z"/>
<path fill="#5A49E3" opacity="1.000000" stroke="none" 
	d="
M617.000000,589.000000 
	C566.860046,589.000000 517.220093,589.000732 467.580170,588.999023 
	C462.600525,588.998840 459.733948,584.256287 462.070892,579.945923 
	C462.546173,579.069336 463.286682,578.930359 464.125336,578.914612 
	C465.457520,578.889648 466.790253,578.884521 468.122742,578.884460 
	C556.741699,578.883240 645.360657,578.882996 733.979614,578.884094 
	C739.804688,578.884155 742.005249,582.007629 740.095947,587.478394 
	C739.186035,590.085449 737.008423,588.937439 735.436340,588.942627 
	C710.783203,589.024353 686.129761,589.000000 661.476379,589.000000 
	C646.817566,589.000000 632.158813,589.000000 617.000000,589.000000 
z"/>
<path fill="#5C4BE3" opacity="1.000000" stroke="none" 
	d="
M586.883545,706.215454 
	C580.313293,699.900146 579.016235,691.089722 583.379639,684.262939 
	C587.723511,677.466919 598.402100,674.791992 607.213196,678.292847 
	C614.461792,681.172974 618.419678,688.989868 616.758057,697.144348 
	C614.570679,707.879028 601.370850,713.381104 590.200439,708.189575 
	C589.149963,707.701355 588.189270,707.020081 586.883545,706.215454 
z"/>
<path fill="#E9E9EF" opacity="1.000000" stroke="none" 
	d="
M498.826111,510.257538 
	C490.674866,507.016693 485.159973,501.393494 481.214630,494.181976 
	C478.547028,489.306000 479.951965,487.009125 485.480408,486.999512 
	C507.473328,486.961151 529.466309,486.983063 551.459290,486.982635 
	C553.077271,486.982605 554.695251,486.982605 557.405823,486.982605 
	C553.751953,483.901825 550.893127,481.531921 548.082642,479.106171 
	C546.465454,477.710327 545.445801,475.990631 546.368347,473.813782 
	C547.263184,471.702454 549.095459,471.107513 551.273743,471.116760 
	C558.937805,471.149261 566.603943,471.032471 574.265259,471.179474 
	C576.859680,471.229309 578.646118,470.462616 580.164001,468.339020 
	C583.739502,463.336609 588.593201,459.767853 594.206970,457.474792 
	C597.099182,456.293365 597.889160,454.611542 597.713928,451.783600 
	C597.570374,449.467285 597.656433,447.111938 597.913086,444.804199 
	C598.089050,443.222595 599.090576,442.014587 600.876465,441.959961 
	C602.800720,441.901093 604.000854,442.882812 604.435425,444.771881 
	C604.472778,444.934204 604.513489,445.095795 604.549072,445.258484 
	C606.755066,455.343262 606.767212,455.327332 614.499084,461.210876 
	C616.353088,462.621643 618.728333,463.830292 619.772339,465.731354 
	C622.819641,471.280579 627.577148,471.471222 632.943481,471.190430 
	C638.426697,470.903534 643.936768,471.116608 649.434937,471.133087 
	C651.421814,471.139069 653.715210,470.837738 654.674194,473.091949 
	C655.709595,475.525818 654.654358,477.649445 652.794128,479.349365 
	C650.284058,481.643158 647.734924,483.894104 644.287537,486.983307 
	C647.091431,486.983307 648.684082,486.983337 650.276794,486.983337 
	C672.103149,486.983307 693.929504,486.972168 715.755859,486.989960 
	C722.374329,486.995361 723.590942,488.942047 720.461365,494.807007 
	C714.153076,506.629181 703.853821,512.073059 690.820862,512.908264 
	C688.046204,513.086121 685.250427,512.934204 682.058960,512.934204 
	C684.602112,520.620605 683.923767,527.111938 677.095398,531.486328 
	C672.342163,534.531311 667.111328,534.471191 662.467346,531.304749 
	C655.897827,526.825439 654.825623,520.471863 657.824829,513.016907 
	C655.939270,513.016907 654.446655,512.976624 652.957031,513.025269 
	C649.821472,513.127563 645.993530,512.222229 643.746704,513.701111 
	C641.472473,515.197998 643.123169,519.258789 642.884644,522.183472 
	C642.689636,524.574646 641.985229,526.733215 639.274414,526.644287 
	C636.547852,526.554749 635.936096,524.324890 635.983337,521.938416 
	C635.999878,521.105713 636.143311,520.233582 635.952026,519.446777 
	C635.443115,517.353088 637.485107,513.942383 634.653076,513.340942 
	C631.390259,512.647888 627.531982,511.738434 624.651428,515.526794 
	C620.691101,520.735352 614.924866,523.615967 608.845398,525.530334 
	C605.506531,526.581665 604.194458,528.192322 604.611633,531.591797 
	C604.832947,533.395386 604.690247,535.254700 604.596619,537.082947 
	C604.482056,539.318848 603.562866,541.031555 601.036804,541.026917 
	C598.721008,541.022705 597.462830,539.245178 597.842896,537.389038 
	C599.654602,528.540161 594.822815,525.031372 587.293457,522.966187 
	C583.768860,521.999451 580.439758,519.818420 578.488708,516.677795 
	C576.221436,513.028137 573.147461,512.843994 569.518127,512.961853 
	C567.189697,513.037476 566.211060,513.768127 566.298828,516.161743 
	C566.390137,518.651001 566.264404,521.157166 566.081299,523.644653 
	C565.935486,525.626038 564.530396,526.614197 562.711853,526.678589 
	C560.791138,526.746521 559.719238,525.467773 559.257324,523.677979 
	C559.175110,523.359192 559.193542,523.015686 559.149048,522.685730 
	C558.733643,519.605835 560.647705,515.348511 558.260864,513.681030 
	C555.470215,511.731476 551.206787,513.097473 547.061646,513.142517 
	C549.791687,520.668701 548.757812,527.245544 541.843872,531.580017 
	C537.116028,534.544006 531.856262,534.483826 527.229919,531.159729 
	C520.967468,526.660034 519.794983,520.470337 522.828369,513.019836 
	C514.490845,513.080017 506.634369,513.322449 498.826111,510.257538 
z"/>
<path fill="#EAEAEF" opacity="1.000000" stroke="none" 
	d="
M408.875214,737.742188 
	C410.243164,731.178101 411.540802,725.029358 412.900940,718.584656 
	C414.494049,719.328369 414.640625,720.433533 414.877411,721.455444 
	C417.986176,734.871399 420.975220,748.316711 424.268188,761.687256 
	C425.104279,765.081909 424.517212,766.165527 420.957703,765.997681 
	C415.982178,765.762939 410.982849,765.814819 406.002258,765.988525 
	C403.133026,766.088501 402.145538,765.403748 402.943054,762.344543 
	C405.035431,754.318298 406.868500,746.224487 408.875214,737.742188 
z"/>
<path fill="#EAEAEF" opacity="1.000000" stroke="none" 
	d="
M613.736816,368.867065 
	C604.775635,368.867554 596.281738,368.939056 587.789429,368.849640 
	C577.058533,368.736725 569.956543,361.631195 570.148926,351.360443 
	C570.333618,341.492889 577.189819,334.941895 587.576538,334.851257 
	C596.235596,334.775696 604.916321,335.211060 613.550598,334.742126 
	C625.291321,334.104523 631.841797,343.312653 631.903870,350.928741 
	C631.990906,361.616333 625.563477,368.292206 613.736816,368.867065 
z"/>
<path fill="#EDECEF" opacity="1.000000" stroke="none" 
	d="
M669.174316,754.429443 
	C671.549194,748.364685 675.772888,745.828674 681.818420,746.249390 
	C687.854248,746.669373 691.089233,750.439270 692.566040,755.831238 
	C695.169922,765.338440 695.270691,774.948730 692.455872,784.417114 
	C690.533752,790.882629 686.894836,793.607849 681.057129,793.780151 
	C674.963074,793.959961 671.003357,791.386963 668.925903,784.742737 
	C665.825439,774.826477 665.958313,764.761780 669.174316,754.429443 
z"/>
<path fill="#5C4BE3" opacity="1.000000" stroke="none" 
	d="
M621.454041,508.215637 
	C616.564453,515.753113 609.270325,519.275757 601.360840,520.613098 
	C592.613159,522.092102 579.325195,510.515625 578.016907,501.426056 
	C577.969604,501.097534 577.930603,500.764221 577.930298,500.433105 
	C577.927612,497.356018 576.694397,494.028961 578.754761,491.327240 
	C579.886841,489.842804 589.732666,491.442108 591.983582,493.088379 
	C592.385925,493.382629 592.774841,493.695068 593.175903,493.991028 
	C600.998230,499.763550 601.257935,500.075500 608.689636,493.898438 
	C613.029968,490.290863 617.638184,491.181641 622.332825,491.065765 
	C624.311890,491.016876 624.120483,492.624329 624.210022,493.916168 
	C624.548096,498.793121 624.229126,503.554993 621.454041,508.215637 
z"/>
<path fill="#5B4AE3" opacity="1.000000" stroke="none" 
	d="
M502.024048,493.870728 
	C523.340454,493.870728 544.163147,493.970062 564.983398,493.788086 
	C569.210815,493.751160 571.744995,494.407074 570.915649,499.347992 
	C570.727417,500.469788 570.853699,501.703094 571.100403,502.826843 
	C571.615906,505.174835 570.922607,506.165924 568.394409,506.151001 
	C549.239929,506.038116 530.076843,506.315674 510.934143,505.805298 
	C502.507111,505.580566 494.872711,502.450989 489.305176,493.870819 
	C494.021545,493.870819 497.775543,493.870819 502.024048,493.870728 
z"/>
<path fill="#5B4AE3" opacity="1.000000" stroke="none" 
	d="
M656.000000,493.870728 
	C674.883179,493.870667 693.266296,493.870667 712.362549,493.870667 
	C708.710815,500.876343 702.860352,503.357391 696.605286,504.998474 
	C693.589478,505.789642 690.363342,506.056366 687.229614,506.074371 
	C669.777405,506.174683 652.323425,506.036621 634.872192,506.202118 
	C631.280457,506.236176 630.376953,505.311584 630.962219,501.713959 
	C632.233093,493.901978 632.042664,493.870972 640.041870,493.870850 
	C645.194580,493.870758 650.347290,493.870819 656.000000,493.870728 
z"/>
<path fill="#5C4BE3" opacity="1.000000" stroke="none" 
	d="
M609.585266,485.184082 
	C609.092102,485.448944 608.949158,485.534912 608.812439,485.629730 
	C601.310913,490.834167 601.239441,490.941589 593.553650,485.818939 
	C590.151550,483.551422 586.515198,484.169983 582.923645,484.183380 
	C579.973328,484.194366 579.430969,483.127533 580.529724,480.592773 
	C582.064331,477.052399 583.848267,474.529449 588.540955,474.751221 
	C597.181091,475.159576 605.854431,474.850311 614.513794,474.876526 
	C618.043762,474.887207 622.090454,479.041992 622.093994,482.413666 
	C622.096375,484.709808 620.416931,483.990570 619.276672,484.107452 
	C616.166077,484.426331 612.934448,483.469147 609.585266,485.184082 
z"/>
<path fill="#6050E4" opacity="1.000000" stroke="none" 
	d="
M672.087036,526.070862 
	C666.562195,526.564697 663.287354,524.456726 663.176392,520.298340 
	C663.075195,516.503052 665.152039,514.022705 668.874390,513.207031 
	C672.338928,512.447937 675.900696,515.033691 676.431824,518.769714 
	C676.898865,522.054199 675.571472,524.570007 672.087036,526.070862 
z"/>
<path fill="#6050E4" opacity="1.000000" stroke="none" 
	d="
M538.529297,514.312683 
	C541.532227,516.886902 542.302612,519.757507 540.659790,522.976135 
	C539.330688,525.580139 536.951050,526.803467 534.077271,526.450195 
	C531.237976,526.101135 529.234619,524.493103 528.355164,521.616760 
	C527.585571,519.099792 528.355286,516.932190 530.048950,515.230896 
	C532.387268,512.881958 535.199158,512.372009 538.529297,514.312683 
z"/>
<path fill="#6A5BE4" opacity="1.000000" stroke="none" 
	d="
M596.765503,463.612488 
	C602.915100,460.234436 606.650146,464.781250 610.980896,467.529633 
	C604.476501,467.529633 597.972168,467.529633 591.051147,467.529633 
	C592.361694,465.512054 594.589233,464.883392 596.765503,463.612488 
z"/>
<path fill="#6050E4" opacity="1.000000" stroke="none" 
	d="
M571.455200,478.003906 
	C576.190002,479.076569 572.295959,481.252686 572.406494,482.839233 
	C572.535645,484.692657 571.122925,485.225006 569.306396,484.562592 
	C565.819580,483.290985 562.947327,481.078339 559.024109,478.000366 
	C563.713806,478.000366 567.368469,478.000366 571.455200,478.003906 
z"/>
<path fill="#6050E4" opacity="1.000000" stroke="none" 
	d="
M630.637817,478.005676 
	C634.352600,478.000946 637.646179,478.000946 642.484924,478.000946 
	C639.214050,480.316925 637.098938,481.968842 634.826477,483.364563 
	C633.508606,484.173981 631.597412,485.741119 630.453125,484.186310 
	C629.324280,482.652588 628.230652,480.542480 628.824036,478.304596 
	C628.878845,478.097961 629.733521,478.103424 630.637817,478.005676 
z"/>
<path fill="#5E4DE3" opacity="1.000000" stroke="none" 
	d="
M603.989014,361.977661 
	C598.326782,361.977325 593.160461,362.057892 587.997681,361.956329 
	C581.372375,361.826019 577.364929,358.096985 577.117310,352.026917 
	C576.877502,346.149261 580.812805,341.707794 587.373230,341.473053 
	C596.524048,341.145569 605.705750,341.134094 614.854675,341.490021 
	C621.388977,341.744232 625.210083,346.192474 624.974304,352.161713 
	C624.738098,358.142120 620.653625,361.819000 613.982666,361.967468 
	C610.818665,362.037903 607.651917,361.978333 603.989014,361.977661 
z"/>
</svg>