<svg version="1.1" id="Layer_1" xmlns="http://www.w3.org/2000/svg" xmlns:xlink="http://www.w3.org/1999/xlink" x="0px" y="0px"
	 width="100%" viewBox="0 0 1200 1200" enable-background="new 0 0 1200 1200" xml:space="preserve">
<path fill="#000000" opacity="1.000000" stroke="none" 
	d="
M633.000000,1201.000000 
	C422.000000,1201.000000 211.500000,1201.000000 1.000000,1201.000000 
	C1.000000,801.000000 1.000000,401.000000 1.000000,1.000000 
	C401.000000,1.000000 801.000000,1.000000 1201.000000,1.000000 
	C1201.000000,401.000000 1201.000000,801.000000 1201.000000,1201.000000 
	C1011.833313,1201.000000 822.666687,1201.000000 633.000000,1201.000000 
M179.984589,542.287354 
	C178.656525,554.021057 176.286209,565.749268 176.225067,577.489563 
	C176.110367,599.520142 176.888504,621.583252 178.165146,643.582397 
	C178.912201,656.455688 180.379669,669.449890 183.233124,682.000977 
	C187.765305,701.936096 192.980072,721.787537 199.261887,741.236511 
	C208.529526,769.929932 222.045639,796.867493 237.579590,822.622192 
	C253.277405,848.648682 271.928253,872.634644 293.132568,894.449707 
	C304.449036,906.092163 316.153198,917.482239 328.636078,927.836548 
	C346.223755,942.425049 364.626770,955.970215 384.587524,967.374878 
	C412.735962,983.457703 441.831604,997.380920 472.818329,1006.903259 
	C495.548645,1013.888245 518.655029,1019.732361 542.439026,1021.966797 
	C559.810486,1023.598877 577.218323,1025.413086 594.639038,1025.784668 
	C610.819763,1026.130005 627.072144,1025.107910 643.230530,1023.871277 
	C656.268494,1022.873413 669.435913,1021.640198 682.148010,1018.756958 
	C701.928162,1014.270691 721.573242,1008.934570 740.908813,1002.802307 
	C769.824951,993.631653 796.813049,979.858765 822.788757,964.426697 
	C848.794189,948.976990 872.418396,930.079224 894.204102,909.096313 
	C906.004578,897.730652 917.437561,885.856323 927.922546,873.282715 
	C942.569580,855.717957 955.942261,837.148560 967.417175,817.252258 
	C982.543823,791.024353 995.908142,763.948242 1004.848145,735.022583 
	C1010.596375,716.424377 1015.107849,697.360901 1018.830872,678.244385 
	C1022.172424,661.086548 1024.759399,643.629761 1025.700806,626.197998 
	C1026.692383,607.834351 1025.871704,589.314026 1024.835815,570.918884 
	C1024.054565,557.046204 1021.983826,543.219238 1019.957520,529.449768 
	C1016.563782,506.388702 1010.764648,483.923065 1003.135620,461.857758 
	C993.757263,434.732727 981.414490,409.070984 967.078491,384.281952 
	C949.967773,354.695129 929.152283,327.882599 905.024658,303.823395 
	C890.684082,289.523438 875.324524,276.137848 859.565186,263.402802 
	C847.419922,253.588348 834.426270,244.587814 820.926941,236.745087 
	C804.278931,227.073090 787.107056,218.067688 769.437317,210.455582 
	C751.869751,202.887543 733.690186,196.362228 715.251709,191.300644 
	C696.932922,186.271927 678.012329,183.319672 659.249878,180.066711 
	C647.959412,178.109192 636.471436,176.271652 625.064331,176.223129 
	C602.866333,176.128662 580.637451,176.888489 558.471436,178.165024 
	C545.598206,178.906387 532.604126,180.379501 520.052856,183.232224 
	C500.117737,187.763168 480.279449,193.011505 460.813812,199.247482 
	C432.095795,208.447571 405.213837,222.084366 379.393219,237.459610 
	C353.276123,253.011383 329.490448,271.943207 307.625214,293.070953 
	C295.950867,304.351471 284.614838,316.105072 274.223175,328.560455 
	C259.571625,346.121704 246.163788,364.663025 234.700729,384.568634 
	C219.510651,410.946228 206.279129,438.210327 197.031387,467.233887 
	C192.742264,480.695068 189.296021,494.454376 186.102417,508.225708 
	C183.566498,519.161011 181.996246,530.320251 179.984589,542.287354 
z"/>
<path fill="#5A4AE3" opacity="1.000000" stroke="none" 
	d="
M179.990906,541.833740 
	C181.996246,530.320251 183.566498,519.161011 186.102417,508.225708 
	C189.296021,494.454376 192.742264,480.695068 197.031387,467.233887 
	C206.279129,438.210327 219.510651,410.946228 234.700729,384.568634 
	C246.163788,364.663025 259.571625,346.121704 274.223175,328.560455 
	C284.614838,316.105072 295.950867,304.351471 307.625214,293.070953 
	C329.490448,271.943207 353.276123,253.011383 379.393219,237.459610 
	C405.213837,222.084366 432.095795,208.447571 460.813812,199.247482 
	C480.279449,193.011505 500.117737,187.763168 520.052856,183.232224 
	C532.604126,180.379501 545.598206,178.906387 558.471436,178.165024 
	C580.637451,176.888489 602.866333,176.128662 625.064331,176.223129 
	C636.471436,176.271652 647.959412,178.109192 659.249878,180.066711 
	C678.012329,183.319672 696.932922,186.271927 715.251709,191.300644 
	C733.690186,196.362228 751.869751,202.887543 769.437317,210.455582 
	C787.107056,218.067688 804.278931,227.073090 820.926941,236.745087 
	C834.426270,244.587814 847.419922,253.588348 859.565186,263.402802 
	C875.324524,276.137848 890.684082,289.523438 905.024658,303.823395 
	C929.152283,327.882599 949.967773,354.695129 967.078491,384.281952 
	C981.414490,409.070984 993.757263,434.732727 1003.135620,461.857758 
	C1010.764648,483.923065 1016.563782,506.388702 1019.957520,529.449768 
	C1021.983826,543.219238 1024.054565,557.046204 1024.835815,570.918884 
	C1025.871704,589.314026 1026.692383,607.834351 1025.700806,626.197998 
	C1024.759399,643.629761 1022.172424,661.086548 1018.830872,678.244385 
	C1015.107849,697.360901 1010.596375,716.424377 1004.848145,735.022583 
	C995.908142,763.948242 982.543823,791.024353 967.417175,817.252258 
	C955.942261,837.148560 942.569580,855.717957 927.922546,873.282715 
	C917.437561,885.856323 906.004578,897.730652 894.204102,909.096313 
	C872.418396,930.079224 848.794189,948.976990 822.788757,964.426697 
	C796.813049,979.858765 769.824951,993.631653 740.908813,1002.802307 
	C721.573242,1008.934570 701.928162,1014.270691 682.148010,1018.756958 
	C669.435913,1021.640198 656.268494,1022.873413 643.230530,1023.871277 
	C627.072144,1025.107910 610.819763,1026.130005 594.639038,1025.784668 
	C577.218323,1025.413086 559.810486,1023.598877 542.439026,1021.966797 
	C518.655029,1019.732361 495.548645,1013.888245 472.818329,1006.903259 
	C441.831604,997.380920 412.735962,983.457703 384.587524,967.374878 
	C364.626770,955.970215 346.223755,942.425049 328.636078,927.836548 
	C316.153198,917.482239 304.449036,906.092163 293.132568,894.449707 
	C271.928253,872.634644 253.277405,848.648682 237.579590,822.622192 
	C222.045639,796.867493 208.529526,769.929932 199.261887,741.236511 
	C192.980072,721.787537 187.765305,701.936096 183.233124,682.000977 
	C180.379669,669.449890 178.912201,656.455688 178.165146,643.582397 
	C176.888504,621.583252 176.110367,599.520142 176.225067,577.489563 
	C176.286209,565.749268 178.656525,554.021057 179.990906,541.833740 
M1010.107910,668.789185 
	C1012.071838,651.363037 1014.920105,633.980530 1015.784302,616.500061 
	C1016.968079,592.555115 1015.918945,568.563660 1011.967651,544.831238 
	C1009.449951,529.709473 1007.461853,514.411865 1003.598938,499.620667 
	C996.310303,471.712646 987.021240,444.300079 973.645264,418.718658 
	C963.157959,398.661896 951.350525,379.158447 938.555176,360.488220 
	C928.028015,345.127655 915.633667,330.955750 903.224609,317.006317 
	C894.256287,306.924774 884.109558,297.849091 874.106567,288.744293 
	C866.585815,281.898834 858.881897,275.100433 850.509277,269.378876 
	C835.449219,259.087372 819.931335,249.449646 804.411560,239.851044 
	C785.602783,228.218201 765.378418,219.505646 744.658447,211.917511 
	C719.988708,202.882858 694.936829,195.207718 668.767151,191.927170 
	C651.363220,189.745453 633.950439,187.287994 616.464294,186.222443 
	C603.438843,185.428726 590.274841,186.389755 577.200134,187.086746 
	C566.542664,187.654892 555.854492,188.512634 545.308472,190.097626 
	C529.991150,192.399689 514.546692,194.536072 499.591614,198.419083 
	C472.299957,205.505310 445.706421,214.966965 420.357178,227.405182 
	C399.388336,237.694031 378.968384,249.146851 360.333282,263.322174 
	C345.721588,274.436981 331.349060,285.944489 317.642578,298.145172 
	C307.439423,307.227417 298.248352,317.494202 289.027130,327.616547 
	C282.075500,335.247467 275.161469,343.054840 269.346283,351.547577 
	C259.041138,366.597656 249.439163,382.138428 239.808502,397.638855 
	C228.219513,416.291199 219.555634,436.382477 212.019028,456.928894 
	C202.925049,481.721008 195.176590,506.929962 191.908539,533.261353 
	C189.748032,550.668823 187.284271,568.081299 186.221939,585.568420 
	C185.430634,598.594177 186.389755,611.757935 187.086838,624.832642 
	C187.655045,635.490112 188.511444,646.178650 190.098480,656.724243 
	C192.403503,672.040833 194.550522,687.482605 198.431610,702.438538 
	C205.514267,729.731750 214.981247,756.322571 227.421417,781.671204 
	C237.711838,802.639465 249.156052,823.065308 263.346283,841.689209 
	C274.573059,856.423767 286.213409,870.900574 298.519592,884.736267 
	C307.487091,894.818298 317.634369,903.893738 327.639191,912.996399 
	C335.274658,919.943359 343.081787,926.856873 351.574982,932.671631 
	C366.625641,942.976013 382.162018,952.585022 397.667145,962.207947 
	C416.323547,973.786560 436.413452,982.448853 456.959564,989.990173 
	C481.751892,999.089966 506.964691,1006.819885 533.290649,1010.103943 
	C550.697327,1012.275269 568.113037,1014.719482 585.601135,1015.778625 
	C598.627319,1016.567505 611.790771,1015.610413 624.865479,1014.913208 
	C635.522949,1014.344971 646.267029,1013.726318 656.746826,1011.861145 
	C676.778015,1008.295898 696.994873,1005.043274 716.513733,999.481628 
	C757.677185,987.752502 796.281799,969.903320 831.653687,945.654663 
	C845.125488,936.419312 857.710754,925.883484 870.623413,915.841919 
	C885.647888,904.158142 898.667297,890.400513 911.286438,876.232300 
	C925.361328,860.429443 938.609558,843.944092 949.469055,825.781860 
	C959.089355,809.692444 968.337463,793.318359 976.658936,776.529175 
	C989.058716,751.511719 997.939514,725.103577 1004.448975,697.951721 
	C1006.687317,688.615295 1008.183350,679.100952 1010.107910,668.789185 
z"/>
<path fill="#000000" opacity="1.000000" stroke="none" 
	d="
M1010.063232,669.228516 
	C1008.183350,679.100952 1006.687317,688.615295 1004.448975,697.951721 
	C997.939514,725.103577 989.058716,751.511719 976.658936,776.529175 
	C968.337463,793.318359 959.089355,809.692444 949.469055,825.781860 
	C938.609558,843.944092 925.361328,860.429443 911.286438,876.232300 
	C898.667297,890.400513 885.647888,904.158142 870.623413,915.841919 
	C857.710754,925.883484 845.125488,936.419312 831.653687,945.654663 
	C796.281799,969.903320 757.677185,987.752502 716.513733,999.481628 
	C696.994873,1005.043274 676.778015,1008.295898 656.746826,1011.861145 
	C646.267029,1013.726318 635.522949,1014.344971 624.865479,1014.913208 
	C611.790771,1015.610413 598.627319,1016.567505 585.601135,1015.778625 
	C568.113037,1014.719482 550.697327,1012.275269 533.290649,1010.103943 
	C506.964691,1006.819885 481.751892,999.089966 456.959564,989.990173 
	C436.413452,982.448853 416.323547,973.786560 397.667145,962.207947 
	C382.162018,952.585022 366.625641,942.976013 351.574982,932.671631 
	C343.081787,926.856873 335.274658,919.943359 327.639191,912.996399 
	C317.634369,903.893738 307.487091,894.818298 298.519592,884.736267 
	C286.213409,870.900574 274.573059,856.423767 263.346283,841.689209 
	C249.156052,823.065308 237.711838,802.639465 227.421417,781.671204 
	C214.981247,756.322571 205.514267,729.731750 198.431610,702.438538 
	C194.550522,687.482605 192.403503,672.040833 190.098480,656.724243 
	C188.511444,646.178650 187.655045,635.490112 187.086838,624.832642 
	C186.389755,611.757935 185.430634,598.594177 186.221939,585.568420 
	C187.284271,568.081299 189.748032,550.668823 191.908539,533.261353 
	C195.176590,506.929962 202.925049,481.721008 212.019028,456.928894 
	C219.555634,436.382477 228.219513,416.291199 239.808502,397.638855 
	C249.439163,382.138428 259.041138,366.597656 269.346283,351.547577 
	C275.161469,343.054840 282.075500,335.247467 289.027130,327.616547 
	C298.248352,317.494202 307.439423,307.227417 317.642578,298.145172 
	C331.349060,285.944489 345.721588,274.436981 360.333282,263.322174 
	C378.968384,249.146851 399.388336,237.694031 420.357178,227.405182 
	C445.706421,214.966965 472.299957,205.505310 499.591614,198.419083 
	C514.546692,194.536072 529.991150,192.399689 545.308472,190.097626 
	C555.854492,188.512634 566.542664,187.654892 577.200134,187.086746 
	C590.274841,186.389755 603.438843,185.428726 616.464294,186.222443 
	C633.950439,187.287994 651.363220,189.745453 668.767151,191.927170 
	C694.936829,195.207718 719.988708,202.882858 744.658447,211.917511 
	C765.378418,219.505646 785.602783,228.218201 804.411560,239.851044 
	C819.931335,249.449646 835.449219,259.087372 850.509277,269.378876 
	C858.881897,275.100433 866.585815,281.898834 874.106567,288.744293 
	C884.109558,297.849091 894.256287,306.924774 903.224609,317.006317 
	C915.633667,330.955750 928.028015,345.127655 938.555176,360.488220 
	C951.350525,379.158447 963.157959,398.661896 973.645264,418.718658 
	C987.021240,444.300079 996.310303,471.712646 1003.598938,499.620667 
	C1007.461853,514.411865 1009.449951,529.709473 1011.967651,544.831238 
	C1015.918945,568.563660 1016.968079,592.555115 1015.784302,616.500061 
	C1014.920105,633.980530 1012.071838,651.363037 1010.063232,669.228516 
M740.971313,588.084595 
	C740.971313,584.819763 740.971313,581.554932 740.971313,578.304443 
	C647.343079,578.304443 554.345215,578.304443 461.167114,578.304443 
	C461.167114,582.070129 461.167114,585.534302 461.491638,589.793213 
	C462.152161,589.860657 462.812683,589.987244 463.473206,589.987305 
	C554.777466,589.997437 646.081726,590.001892 737.385986,589.958069 
	C738.535217,589.957520 739.684265,589.332275 740.971313,588.084595 
M581.026611,724.973877 
	C581.064697,755.294678 581.102722,785.615479 581.217529,816.704468 
	C582.920532,817.469482 584.606445,818.847717 586.329285,818.895569 
	C594.647583,819.126526 602.977844,818.892334 611.299438,819.052124 
	C614.622925,819.115967 616.074524,818.214294 616.060974,814.574463 
	C615.950256,784.772583 615.975769,754.969971 616.034363,725.167786 
	C616.040039,722.270996 615.186768,720.907166 612.049622,720.955017 
	C603.393982,721.087158 594.729492,720.840820 586.082092,721.138184 
	C584.403137,721.195923 582.785461,723.035706 581.026611,724.973877 
M394.178680,693.027161 
	C393.777435,693.637390 393.207428,694.195435 393.000244,694.865662 
	C389.787689,705.258240 386.618195,715.664246 383.446564,726.069458 
	C378.275574,743.033813 373.133270,760.006958 367.935028,776.962952 
	C364.127472,789.382751 360.264221,801.785583 356.393585,814.185974 
	C355.282959,817.744141 356.615845,819.073242 360.216248,819.032043 
	C369.047180,818.930847 377.884399,818.840698 386.709900,819.081848 
	C389.951843,819.170532 391.379333,817.491943 391.915588,814.982361 
	C393.510498,807.518433 394.824249,799.994385 396.149750,793.010742 
	C407.942505,793.010742 419.349213,793.010742 430.594757,793.010742 
	C432.469818,800.585083 434.573303,807.632568 435.831268,814.827820 
	C436.388824,818.016968 437.275513,819.092163 440.416962,819.047729 
	C449.913696,818.913391 459.413910,819.035828 468.911926,818.956970 
	C470.263153,818.945740 471.609711,818.373291 473.267731,817.988953 
	C470.407745,809.258179 467.554810,801.139832 465.090363,792.905273 
	C459.596069,774.547058 454.332062,756.119995 448.904449,737.741577 
	C444.945374,724.335938 440.956390,710.937439 436.765167,697.603516 
	C436.143433,695.625610 434.333282,694.021301 432.138214,692.031494 
	C421.083221,692.020996 410.028046,691.978882 398.973480,692.041077 
	C397.630829,692.048584 396.291351,692.617676 394.178680,693.027161 
M682.500000,417.000000 
	C608.762451,417.000000 535.024841,417.000000 461.394348,417.000000 
	C461.394348,469.063477 461.394348,520.438538 461.394348,571.744629 
	C554.703613,571.744629 647.619019,571.744629 740.694092,571.744629 
	C740.694092,520.114319 740.694092,468.739777 740.694092,417.000000 
	C721.427185,417.000000 702.463562,417.000000 682.500000,417.000000 
M747.000000,500.500000 
	C747.000000,529.921326 747.000000,559.342712 747.000000,588.762512 
	C750.644348,588.762512 753.582703,588.762512 756.999756,588.762512 
	C756.999756,587.243164 756.999817,585.955017 756.999817,584.666931 
	C756.999878,518.178284 756.964294,451.689514 757.106628,385.201111 
	C757.113586,381.938812 755.557556,380.448914 753.346619,379.096771 
	C738.327515,369.911652 723.210388,360.885742 708.240723,351.621185 
	C673.720642,330.257172 639.295837,308.738800 604.701782,287.495758 
	C602.907349,286.393860 599.774841,286.792389 597.487610,287.370941 
	C595.385803,287.902588 593.582825,289.619049 591.650696,290.817566 
	C570.040833,304.222137 548.459167,317.672272 526.814880,331.020966 
	C500.716919,347.116486 474.572662,363.136993 448.427521,379.155853 
	C445.820038,380.753479 444.902130,382.729218 444.908051,385.933777 
	C445.030304,451.922302 444.998505,517.911133 445.009247,583.899902 
	C445.009521,585.506714 445.146973,587.113525 445.215393,588.610107 
	C448.706360,588.610107 451.757233,588.610107 455.000000,588.610107 
	C455.000000,586.231445 455.000000,584.241821 455.000000,582.252197 
	C455.000000,519.429565 455.031921,456.606842 454.922791,393.784393 
	C454.916046,389.904938 456.047119,387.269653 459.323395,385.258362 
	C480.582855,372.207306 501.800812,359.088745 523.035156,345.996887 
	C546.916443,331.273132 570.863770,316.654846 594.629578,301.747040 
	C599.316284,298.807129 602.926575,298.944336 607.543945,301.902130 
	C624.573730,312.810913 641.807312,323.404053 659.034607,334.001495 
	C686.810974,351.088165 714.635803,368.095947 742.460938,385.103088 
	C745.863403,387.182739 747.113708,389.908264 747.094421,394.018402 
	C746.929688,429.178284 747.000000,464.339325 747.000000,500.500000 
M566.029846,326.496948 
	C564.489990,327.410492 562.937073,328.302887 561.412170,329.240753 
	C539.760071,342.557953 518.097473,355.858154 496.472748,369.219788 
	C491.172455,372.494751 485.999115,375.975311 479.966583,379.879700 
	C561.035156,379.879700 640.972229,379.879700 720.909302,379.879700 
	C721.051514,379.610870 721.193665,379.342041 721.335815,379.073242 
	C681.191345,354.360962 641.046875,329.648682 601.041748,305.022186 
	C589.430481,312.127991 578.035828,319.101166 566.029846,326.496948 
M745.000793,794.500000 
	C745.001404,801.332947 744.832764,808.173645 745.144592,814.992371 
	C745.207458,816.367310 747.058716,818.782593 748.141113,818.814209 
	C758.250305,819.109436 768.371704,818.989136 778.999634,818.989136 
	C778.999634,816.689819 778.999634,814.903625 778.999634,813.117432 
	C778.999634,796.285095 778.999390,779.452698 778.999634,762.620361 
	C778.999756,755.394348 781.391357,751.930847 788.095947,749.445007 
	C794.178345,747.189819 800.839111,749.730774 801.848816,754.976013 
	C802.561401,758.677368 802.926758,762.499207 802.951050,766.270386 
	C803.062805,783.626099 803.000305,800.983032 803.000305,818.999451 
	C812.617004,818.999451 822.388367,818.872375 832.153381,819.064697 
	C835.830566,819.137085 837.138062,817.954529 837.061462,814.200012 
	C836.603943,791.766724 836.581726,769.321472 835.853882,746.898499 
	C835.620239,739.700073 832.664795,732.944458 827.823730,727.361267 
	C817.351135,715.283020 795.433472,716.644714 782.803528,726.671082 
	C780.483765,728.512573 778.015991,730.167603 775.438904,732.037659 
	C774.832214,729.481812 774.065735,727.739807 774.076416,726.002625 
	C774.102539,721.760437 772.005249,720.750000 768.139709,720.930115 
	C762.319336,721.201355 756.464355,721.236328 750.648254,720.922607 
	C746.343628,720.690369 744.859924,721.997375 744.903198,726.504822 
	C745.117737,748.834839 745.000854,771.167969 745.000793,794.500000 
M694.500000,410.999329 
	C709.921448,410.999329 725.342896,410.999329 740.998169,410.999329 
	C740.998169,404.786682 741.072449,399.299835 740.939697,393.817963 
	C740.910889,392.627960 740.447205,390.733887 739.657898,390.397278 
	C735.693115,388.706604 731.557373,386.193237 727.475281,386.181580 
	C643.144348,385.940338 558.812439,385.999939 474.480774,386.000366 
	C473.314148,386.000366 471.881622,385.567963 471.027588,386.086212 
	C467.593353,388.170135 462.292786,389.974792 461.459351,392.943176 
	C459.913757,398.447968 461.016663,404.696381 461.016663,410.999329 
	C538.901978,410.999329 616.200989,410.999329 694.500000,410.999329 
M651.702209,728.064148 
	C634.983459,741.945068 629.117615,759.790161 633.047913,780.842163 
	C636.734375,800.588074 648.314697,813.616821 667.732910,819.319641 
	C681.384766,823.328979 694.630493,821.488953 706.306763,813.857788 
	C718.527893,805.870605 726.268127,794.561218 728.199158,779.335083 
	C730.505127,761.152283 727.238770,745.264893 713.658386,732.088135 
	C696.949036,715.875427 670.857056,714.608887 651.702209,728.064148 
M469.996735,727.402222 
	C474.015350,739.598633 478.065979,751.784668 482.044678,763.994080 
	C487.381836,780.372314 492.774139,796.734192 497.893860,813.180542 
	C499.242554,817.513062 501.404663,819.259033 506.044861,819.096802 
	C515.364685,818.771057 524.714294,818.742676 534.030151,819.121399 
	C537.985046,819.282227 539.807068,817.553040 540.793213,814.352966 
	C542.324951,809.382080 543.463013,804.287903 545.048950,799.335999 
	C552.129883,777.226929 559.343445,755.160400 566.423035,733.050964 
	C567.634277,729.268127 568.426392,725.351074 569.538757,721.000671 
	C561.782898,721.000671 554.972290,721.000671 548.161621,721.000671 
	C537.107422,721.000671 536.990906,720.971375 534.412903,731.220947 
	C530.810242,745.544678 527.393005,759.915222 523.915955,774.270447 
	C522.547729,779.919189 521.231873,785.580627 519.758362,791.801392 
	C517.389893,782.108398 515.165222,773.142639 513.012146,764.159607 
	C509.942505,751.352539 507.033508,738.505188 503.762878,725.750183 
	C503.301727,723.951782 501.234863,721.271606 499.825500,721.217102 
	C489.703918,720.825867 479.560181,721.007812 468.727875,721.007812 
	C469.191925,723.206848 469.545532,724.882568 469.996735,727.402222 
M591.173157,677.341553 
	C585.069336,680.212524 580.438538,684.491028 580.075317,691.566589 
	C579.436646,704.006104 586.657654,709.006470 596.704773,710.872864 
	C604.536499,712.327698 615.187012,706.269409 616.941101,699.941345 
	C618.899048,692.877869 618.501770,686.366028 612.574158,681.045471 
	C606.450256,675.548706 599.506409,674.756165 591.173157,677.341553 
z"/>
<path fill="#5A4AE3" opacity="1.000000" stroke="none" 
	d="
M683.000000,417.000000 
	C702.463562,417.000000 721.427185,417.000000 740.694092,417.000000 
	C740.694092,468.739777 740.694092,520.114319 740.694092,571.744629 
	C647.619019,571.744629 554.703613,571.744629 461.394348,571.744629 
	C461.394348,520.438538 461.394348,469.063477 461.394348,417.000000 
	C535.024841,417.000000 608.762451,417.000000 683.000000,417.000000 
M597.999756,449.631531 
	C597.999756,451.948273 597.999756,454.264984 597.999756,456.201569 
	C591.067139,459.463898 584.815552,462.706482 580.383301,468.839447 
	C579.178833,470.506042 576.358643,471.758057 574.216980,471.858643 
	C566.572021,472.217865 558.897766,471.908051 551.240051,472.084229 
	C549.844604,472.116364 547.533508,473.005524 547.306152,473.914490 
	C546.936462,475.392487 547.712280,477.321350 548.444397,478.849213 
	C548.888123,479.775238 550.160583,480.303497 551.059204,481.012360 
	C553.254211,482.743866 555.448303,484.476440 558.645386,487.000000 
	C534.200562,487.000000 511.236694,486.994812 488.272827,487.010803 
	C486.617523,487.011963 484.446167,486.553162 483.434540,487.403015 
	C482.097321,488.526459 480.501007,491.311737 481.032227,492.380066 
	C485.649475,501.665405 492.385284,508.883057 503.057709,510.928345 
	C509.584229,512.179016 516.249634,512.705200 523.104187,513.589233 
	C520.887573,520.436401 521.480774,526.553040 527.699768,530.841980 
	C532.296631,534.012268 538.973267,533.999573 542.885193,530.436462 
	C548.012390,525.766418 549.642456,519.876892 546.516357,513.280518 
	C551.067871,513.280518 555.336304,513.280518 560.082153,513.280518 
	C560.082153,517.635193 560.082153,521.726196 560.082153,526.115723 
	C561.888916,525.923706 564.197571,526.050659 564.312561,525.608032 
	C565.357849,521.582153 566.020752,517.456970 566.940735,512.592163 
	C570.026733,513.081360 574.516174,512.429932 576.429321,514.348022 
	C582.543579,520.478149 589.620667,524.345398 598.014893,526.400024 
	C598.014893,530.198059 597.708008,533.724976 598.167053,537.149170 
	C598.348694,538.504211 600.233276,539.630920 601.342529,540.861572 
	C602.227905,539.534729 603.433594,538.311401 603.905273,536.850891 
	C604.343689,535.493286 604.154907,533.863586 603.970642,532.387573 
	C603.440125,528.139038 604.887634,526.043701 609.324524,524.633911 
	C613.840820,523.198853 618.556885,520.703003 621.787537,517.331909 
	C625.969604,512.967896 630.271240,512.324402 635.757446,513.412598 
	C635.952759,516.567017 635.902954,519.721069 636.458618,522.764587 
	C636.677246,523.962280 638.248535,524.913086 639.203796,525.976318 
	C640.135376,524.714966 641.675659,523.541260 641.872375,522.174194 
	C642.287170,519.291199 641.998535,516.307068 641.998535,513.194031 
	C647.847595,513.194031 653.112793,513.194031 658.416382,513.194031 
	C655.944519,520.831360 657.160278,526.776184 661.860474,530.334045 
	C666.520386,533.861389 673.177368,533.941956 677.943909,530.528625 
	C682.522949,527.249573 683.939148,520.684692 681.627869,513.069153 
	C699.354614,512.539001 715.361023,509.042145 722.186646,488.563446 
	C719.455261,488.005615 716.995667,487.079132 714.531311,487.066406 
	C692.545776,486.952606 670.559387,487.000061 648.573242,487.000061 
	C647.015930,487.000061 645.458618,487.000061 643.277649,487.000061 
	C647.046204,483.683502 650.282043,481.152924 653.083618,478.209015 
	C654.155945,477.082214 654.235535,475.010681 654.767517,473.369690 
	C653.267395,472.913086 651.773865,472.089294 650.265991,472.061890 
	C642.773132,471.925629 635.271118,472.153992 627.785034,471.890808 
	C625.900146,471.824585 623.760864,470.787109 622.265442,469.555939 
	C619.141296,466.983765 616.824219,463.049072 613.354858,461.359497 
	C606.485474,458.014221 602.158325,454.002930 603.853943,445.683258 
	C604.052979,444.707092 602.289368,443.330933 601.435669,442.140198 
	C600.302490,443.172638 598.889343,444.036865 598.132874,445.295715 
	C597.614990,446.157501 598.011841,447.569000 597.999756,449.631531 
z"/>
<path fill="#5A4AE3" opacity="1.000000" stroke="none" 
	d="
M433.072937,692.244141 
	C434.333282,694.021301 436.143433,695.625610 436.765167,697.603516 
	C440.956390,710.937439 444.945374,724.335938 448.904449,737.741577 
	C454.332062,756.119995 459.596069,774.547058 465.090363,792.905273 
	C467.554810,801.139832 470.407745,809.258179 473.267731,817.988953 
	C471.609711,818.373291 470.263153,818.945740 468.911926,818.956970 
	C459.413910,819.035828 449.913696,818.913391 440.416962,819.047729 
	C437.275513,819.092163 436.388824,818.016968 435.831268,814.827820 
	C434.573303,807.632568 432.469818,800.585083 430.594757,793.010742 
	C419.349213,793.010742 407.942505,793.010742 396.149750,793.010742 
	C394.824249,799.994385 393.510498,807.518433 391.915588,814.982361 
	C391.379333,817.491943 389.951843,819.170532 386.709900,819.081848 
	C377.884399,818.840698 369.047180,818.930847 360.216248,819.032043 
	C356.615845,819.073242 355.282959,817.744141 356.393585,814.185974 
	C360.264221,801.785583 364.127472,789.382751 367.935028,776.962952 
	C373.133270,760.006958 378.275574,743.033813 383.446564,726.069458 
	C386.618195,715.664246 389.787689,705.258240 393.000244,694.865662 
	C393.207428,694.195435 393.777435,693.637390 395.034485,692.997253 
	C402.024017,692.978210 408.159729,693.091797 414.290863,692.971497 
	C420.553894,692.848633 426.812439,692.496094 433.072937,692.244141 
M418.483002,741.982361 
	C417.009949,734.907349 415.536896,727.832336 414.063843,720.757324 
	C413.827271,720.809753 413.590698,720.862183 413.354126,720.914551 
	C410.086243,735.411316 406.818390,749.908142 403.467316,764.773926 
	C410.883575,764.773926 417.321259,764.773926 424.077148,764.773926 
	C422.309387,757.235474 420.608582,749.982544 418.483002,741.982361 
z"/>
<path fill="#5A4AE3" opacity="1.000000" stroke="none" 
	d="
M747.000000,500.000000 
	C747.000000,464.339325 746.929688,429.178284 747.094421,394.018402 
	C747.113708,389.908264 745.863403,387.182739 742.460938,385.103088 
	C714.635803,368.095947 686.810974,351.088165 659.034607,334.001495 
	C641.807312,323.404053 624.573730,312.810913 607.543945,301.902130 
	C602.926575,298.944336 599.316284,298.807129 594.629578,301.747040 
	C570.863770,316.654846 546.916443,331.273132 523.035156,345.996887 
	C501.800812,359.088745 480.582855,372.207306 459.323395,385.258362 
	C456.047119,387.269653 454.916046,389.904938 454.922791,393.784393 
	C455.031921,456.606842 455.000000,519.429565 455.000000,582.252197 
	C455.000000,584.241821 455.000000,586.231445 455.000000,588.610107 
	C451.757233,588.610107 448.706360,588.610107 445.215393,588.610107 
	C445.146973,587.113525 445.009521,585.506714 445.009247,583.899902 
	C444.998505,517.911133 445.030304,451.922302 444.908051,385.933777 
	C444.902130,382.729218 445.820038,380.753479 448.427521,379.155853 
	C474.572662,363.136993 500.716919,347.116486 526.814880,331.020966 
	C548.459167,317.672272 570.040833,304.222137 591.650696,290.817566 
	C593.582825,289.619049 595.385803,287.902588 597.487610,287.370941 
	C599.774841,286.792389 602.907349,286.393860 604.701782,287.495758 
	C639.295837,308.738800 673.720642,330.257172 708.240723,351.621185 
	C723.210388,360.885742 738.327515,369.911652 753.346619,379.096771 
	C755.557556,380.448914 757.113586,381.938812 757.106628,385.201111 
	C756.964294,451.689514 756.999878,518.178284 756.999817,584.666931 
	C756.999817,585.955017 756.999756,587.243164 756.999756,588.762512 
	C753.582703,588.762512 750.644348,588.762512 747.000000,588.762512 
	C747.000000,559.342712 747.000000,529.921326 747.000000,500.000000 
z"/>
<path fill="#5A4AE3" opacity="1.000000" stroke="none" 
	d="
M566.335510,326.285645 
	C578.035828,319.101166 589.430481,312.127991 601.041748,305.022186 
	C641.046875,329.648682 681.191345,354.360962 721.335815,379.073242 
	C721.193665,379.342041 721.051514,379.610870 720.909302,379.879700 
	C640.972229,379.879700 561.035156,379.879700 479.966583,379.879700 
	C485.999115,375.975311 491.172455,372.494751 496.472748,369.219788 
	C518.097473,355.858154 539.760071,342.557953 561.412170,329.240753 
	C562.937073,328.302887 564.489990,327.410492 566.335510,326.285645 
M576.027954,339.470947 
	C570.664001,343.137115 569.316284,353.511536 572.524536,359.901276 
	C575.552551,365.932068 581.093079,368.059265 587.650635,368.015839 
	C596.810669,367.955170 605.971497,368.012115 615.131958,367.997253 
	C625.238892,367.980835 630.330444,362.170044 631.195740,352.126617 
	C631.945557,343.423035 623.244385,334.542145 614.796143,334.919037 
	C606.484985,335.289795 598.138855,335.181000 589.818604,334.931641 
	C584.843201,334.782501 580.426147,335.761261 576.027954,339.470947 
z"/>
<path fill="#5A4AE3" opacity="1.000000" stroke="none" 
	d="
M745.000793,794.000000 
	C745.000854,771.167969 745.117737,748.834839 744.903198,726.504822 
	C744.859924,721.997375 746.343628,720.690369 750.648254,720.922607 
	C756.464355,721.236328 762.319336,721.201355 768.139709,720.930115 
	C772.005249,720.750000 774.102539,721.760437 774.076416,726.002625 
	C774.065735,727.739807 774.832214,729.481812 775.438904,732.037659 
	C778.015991,730.167603 780.483765,728.512573 782.803528,726.671082 
	C795.433472,716.644714 817.351135,715.283020 827.823730,727.361267 
	C832.664795,732.944458 835.620239,739.700073 835.853882,746.898499 
	C836.581726,769.321472 836.603943,791.766724 837.061462,814.200012 
	C837.138062,817.954529 835.830566,819.137085 832.153381,819.064697 
	C822.388367,818.872375 812.617004,818.999451 803.000305,818.999451 
	C803.000305,800.983032 803.062805,783.626099 802.951050,766.270386 
	C802.926758,762.499207 802.561401,758.677368 801.848816,754.976013 
	C800.839111,749.730774 794.178345,747.189819 788.095947,749.445007 
	C781.391357,751.930847 778.999756,755.394348 778.999634,762.620361 
	C778.999390,779.452698 778.999634,796.285095 778.999634,813.117432 
	C778.999634,814.903625 778.999634,816.689819 778.999634,818.989136 
	C768.371704,818.989136 758.250305,819.109436 748.141113,818.814209 
	C747.058716,818.782593 745.207458,816.367310 745.144592,814.992371 
	C744.832764,808.173645 745.001404,801.332947 745.000793,794.000000 
z"/>
<path fill="#5A4AE3" opacity="1.000000" stroke="none" 
	d="
M694.000000,410.999329 
	C616.200989,410.999329 538.901978,410.999329 461.016663,410.999329 
	C461.016663,404.696381 459.913757,398.447968 461.459351,392.943176 
	C462.292786,389.974792 467.593353,388.170135 471.027588,386.086212 
	C471.881622,385.567963 473.314148,386.000366 474.480774,386.000366 
	C558.812439,385.999939 643.144348,385.940338 727.475281,386.181580 
	C731.557373,386.193237 735.693115,388.706604 739.657898,390.397278 
	C740.447205,390.733887 740.910889,392.627960 740.939697,393.817963 
	C741.072449,399.299835 740.998169,404.786682 740.998169,410.999329 
	C725.342896,410.999329 709.921448,410.999329 694.000000,410.999329 
z"/>
<path fill="#5A4AE3" opacity="1.000000" stroke="none" 
	d="
M652.060791,727.991943 
	C670.857056,714.608887 696.949036,715.875427 713.658386,732.088135 
	C727.238770,745.264893 730.505127,761.152283 728.199158,779.335083 
	C726.268127,794.561218 718.527893,805.870605 706.306763,813.857788 
	C694.630493,821.488953 681.384766,823.328979 667.732910,819.319641 
	C648.314697,813.616821 636.734375,800.588074 633.047913,780.842163 
	C629.117615,759.790161 634.983459,741.945068 652.060791,727.991943 
M692.627869,781.854248 
	C694.738159,773.236572 694.282288,764.692810 692.023804,756.164795 
	C690.649658,750.976318 686.599792,747.188660 681.950623,747.000610 
	C674.822266,746.712280 671.911743,748.547974 669.949707,755.177795 
	C667.053345,764.965149 666.952820,774.841919 669.933533,784.640381 
	C672.068726,791.659485 675.321716,793.678040 682.763428,792.995117 
	C687.294495,792.579346 691.330017,788.061279 692.627869,781.854248 
z"/>
<path fill="#5A4AE3" opacity="1.000000" stroke="none" 
	d="
M469.947937,726.980286 
	C469.545532,724.882568 469.191925,723.206848 468.727875,721.007812 
	C479.560181,721.007812 489.703918,720.825867 499.825500,721.217102 
	C501.234863,721.271606 503.301727,723.951782 503.762878,725.750183 
	C507.033508,738.505188 509.942505,751.352539 513.012146,764.159607 
	C515.165222,773.142639 517.389893,782.108398 519.758362,791.801392 
	C521.231873,785.580627 522.547729,779.919189 523.915955,774.270447 
	C527.393005,759.915222 530.810242,745.544678 534.412903,731.220947 
	C536.990906,720.971375 537.107422,721.000671 548.161621,721.000671 
	C554.972290,721.000671 561.782898,721.000671 569.538757,721.000671 
	C568.426392,725.351074 567.634277,729.268127 566.423035,733.050964 
	C559.343445,755.160400 552.129883,777.226929 545.048950,799.335999 
	C543.463013,804.287903 542.324951,809.382080 540.793213,814.352966 
	C539.807068,817.553040 537.985046,819.282227 534.030151,819.121399 
	C524.714294,818.742676 515.364685,818.771057 506.044861,819.096802 
	C501.404663,819.259033 499.242554,817.513062 497.893860,813.180542 
	C492.774139,796.734192 487.381836,780.372314 482.044678,763.994080 
	C478.065979,751.784668 474.015350,739.598633 469.947937,726.980286 
z"/>
<path fill="#5A4AE3" opacity="1.000000" stroke="none" 
	d="
M581.139526,724.053467 
	C582.785461,723.035706 584.403137,721.195923 586.082092,721.138184 
	C594.729492,720.840820 603.393982,721.087158 612.049622,720.955017 
	C615.186768,720.907166 616.040039,722.270996 616.034363,725.167786 
	C615.975769,754.969971 615.950256,784.772583 616.060974,814.574463 
	C616.074524,818.214294 614.622925,819.115967 611.299438,819.052124 
	C602.977844,818.892334 594.647583,819.126526 586.329285,818.895569 
	C584.606445,818.847717 582.920532,817.469482 581.356567,815.956543 
	C581.661926,813.896179 581.972046,812.583862 581.973450,811.271362 
	C582.002014,783.816650 582.010315,756.361877 581.959717,728.907227 
	C581.956726,727.288818 581.425110,725.671387 581.139526,724.053467 
z"/>
<path fill="#5A4AE3" opacity="1.000000" stroke="none" 
	d="
M461.167114,588.998474 
	C461.167114,585.534302 461.167114,582.070129 461.167114,578.304443 
	C554.345215,578.304443 647.343079,578.304443 740.971313,578.304443 
	C740.971313,581.554932 740.971313,584.819763 740.444275,588.541870 
	C647.000549,588.998840 554.083801,588.998657 461.167114,588.998474 
z"/>
<path fill="#5A4AE3" opacity="1.000000" stroke="none" 
	d="
M591.546326,677.182617 
	C599.506409,674.756165 606.450256,675.548706 612.574158,681.045471 
	C618.501770,686.366028 618.899048,692.877869 616.941101,699.941345 
	C615.187012,706.269409 604.536499,712.327698 596.704773,710.872864 
	C586.657654,709.006470 579.436646,704.006104 580.075317,691.566589 
	C580.438538,684.491028 585.069336,680.212524 591.546326,677.182617 
z"/>
<path fill="#0000FF" opacity="1.000000" stroke="none" 
	d="
M461.329376,589.395874 
	C554.083801,588.998657 647.000549,588.998840 740.375305,588.998901 
	C739.684265,589.332275 738.535217,589.957520 737.385986,589.958069 
	C646.081726,590.001892 554.777466,589.997437 463.473206,589.987305 
	C462.812683,589.987244 462.152161,589.860657 461.329376,589.395874 
z"/>
<path fill="#6633CC" opacity="1.000000" stroke="none" 
	d="
M581.083069,724.513672 
	C581.425110,725.671387 581.956726,727.288818 581.959717,728.907227 
	C582.010315,756.361877 582.002014,783.816650 581.973450,811.271362 
	C581.972046,812.583862 581.661926,813.896179 581.318115,815.572388 
	C581.102722,785.615479 581.064697,755.294678 581.083069,724.513672 
z"/>
<path fill="#8080FF" opacity="1.000000" stroke="none" 
	d="
M432.605591,692.137817 
	C426.812439,692.496094 420.553894,692.848633 414.290863,692.971497 
	C408.159729,693.091797 402.024017,692.978210 395.420349,692.946899 
	C396.291351,692.617676 397.630829,692.048584 398.973480,692.041077 
	C410.028046,691.978882 421.083221,692.020996 432.605591,692.137817 
z"/>
<path fill="#000000" opacity="1.000000" stroke="none" 
	d="
M597.999756,449.183136 
	C598.011841,447.569000 597.614990,446.157501 598.132874,445.295715 
	C598.889343,444.036865 600.302490,443.172638 601.435669,442.140198 
	C602.289368,443.330933 604.052979,444.707092 603.853943,445.683258 
	C602.158325,454.002930 606.485474,458.014221 613.354858,461.359497 
	C616.824219,463.049072 619.141296,466.983765 622.265442,469.555939 
	C623.760864,470.787109 625.900146,471.824585 627.785034,471.890808 
	C635.271118,472.153992 642.773132,471.925629 650.265991,472.061890 
	C651.773865,472.089294 653.267395,472.913086 654.767517,473.369690 
	C654.235535,475.010681 654.155945,477.082214 653.083618,478.209015 
	C650.282043,481.152924 647.046204,483.683502 643.277649,487.000061 
	C645.458618,487.000061 647.015930,487.000061 648.573242,487.000061 
	C670.559387,487.000061 692.545776,486.952606 714.531311,487.066406 
	C716.995667,487.079132 719.455261,488.005615 722.186646,488.563446 
	C715.361023,509.042145 699.354614,512.539001 681.627869,513.069153 
	C683.939148,520.684692 682.522949,527.249573 677.943909,530.528625 
	C673.177368,533.941956 666.520386,533.861389 661.860474,530.334045 
	C657.160278,526.776184 655.944519,520.831360 658.416382,513.194031 
	C653.112793,513.194031 647.847595,513.194031 641.998535,513.194031 
	C641.998535,516.307068 642.287170,519.291199 641.872375,522.174194 
	C641.675659,523.541260 640.135376,524.714966 639.203796,525.976318 
	C638.248535,524.913086 636.677246,523.962280 636.458618,522.764587 
	C635.902954,519.721069 635.952759,516.567017 635.757446,513.412598 
	C630.271240,512.324402 625.969604,512.967896 621.787537,517.331909 
	C618.556885,520.703003 613.840820,523.198853 609.324524,524.633911 
	C604.887634,526.043701 603.440125,528.139038 603.970642,532.387573 
	C604.154907,533.863586 604.343689,535.493286 603.905273,536.850891 
	C603.433594,538.311401 602.227905,539.534729 601.342529,540.861572 
	C600.233276,539.630920 598.348694,538.504211 598.167053,537.149170 
	C597.708008,533.724976 598.014893,530.198059 598.014893,526.400024 
	C589.620667,524.345398 582.543579,520.478149 576.429321,514.348022 
	C574.516174,512.429932 570.026733,513.081360 566.940735,512.592163 
	C566.020752,517.456970 565.357849,521.582153 564.312561,525.608032 
	C564.197571,526.050659 561.888916,525.923706 560.082153,526.115723 
	C560.082153,521.726196 560.082153,517.635193 560.082153,513.280518 
	C555.336304,513.280518 551.067871,513.280518 546.516357,513.280518 
	C549.642456,519.876892 548.012390,525.766418 542.885193,530.436462 
	C538.973267,533.999573 532.296631,534.012268 527.699768,530.841980 
	C521.480774,526.553040 520.887573,520.436401 523.104187,513.589233 
	C516.249634,512.705200 509.584229,512.179016 503.057709,510.928345 
	C492.385284,508.883057 485.649475,501.665405 481.032227,492.380066 
	C480.501007,491.311737 482.097321,488.526459 483.434540,487.403015 
	C484.446167,486.553162 486.617523,487.011963 488.272827,487.010803 
	C511.236694,486.994812 534.200562,487.000000 558.645386,487.000000 
	C555.448303,484.476440 553.254211,482.743866 551.059204,481.012360 
	C550.160583,480.303497 548.888123,479.775238 548.444397,478.849213 
	C547.712280,477.321350 546.936462,475.392487 547.306152,473.914490 
	C547.533508,473.005524 549.844604,472.116364 551.240051,472.084229 
	C558.897766,471.908051 566.572021,472.217865 574.216980,471.858643 
	C576.358643,471.758057 579.178833,470.506042 580.383301,468.839447 
	C584.815552,462.706482 591.067139,459.463898 597.999756,456.201569 
	C597.999756,454.264984 597.999756,451.948273 597.999756,449.183136 
M622.110657,508.343658 
	C625.212769,502.614685 625.544312,496.517670 624.769165,490.839844 
	C616.311218,490.112732 608.635315,491.406647 602.487732,497.628815 
	C601.935669,498.187653 599.445312,497.689667 598.539124,496.898804 
	C593.333740,492.355743 587.608093,489.815918 580.544861,490.913635 
	C579.572571,491.064758 578.481567,490.451416 577.413879,490.184052 
	C576.407837,499.370300 576.526978,503.363312 582.054871,511.235870 
	C586.593628,517.699829 597.661194,521.847595 605.482605,520.010742 
	C612.290833,518.411865 617.546692,514.529541 622.110657,508.343658 
M572.005493,504.200409 
	C571.492920,500.531708 570.980408,496.863037 570.486206,493.325684 
	C543.053345,493.325684 515.867615,493.325684 487.177765,493.325684 
	C490.577637,496.517670 493.001556,498.842743 495.479034,501.109222 
	C500.829010,506.003662 507.805664,506.629059 514.309631,506.808502 
	C533.117432,507.327393 551.948853,507.004303 570.770508,506.910095 
	C571.200012,506.907959 571.623474,505.698669 572.005493,504.200409 
M672.498413,506.999420 
	C679.588623,506.666412 686.696716,506.545349 693.764404,505.946045 
	C702.355347,505.217621 709.136108,501.333893 713.661499,493.335999 
	C685.902832,493.335999 658.575256,493.335999 631.503662,493.335999 
	C630.867432,498.051331 630.280396,502.401978 629.660034,506.999451 
	C643.552734,506.999451 657.525940,506.999451 672.498413,506.999420 
M615.623901,484.999451 
	C618.200867,484.999451 620.777893,484.999451 623.478699,484.999451 
	C623.179443,483.569153 623.092957,482.564362 622.758179,481.650543 
	C620.291931,474.918945 618.955139,474.000702 611.846069,474.000580 
	C604.700012,474.000427 597.488281,474.605530 590.425598,473.838104 
	C582.655334,472.993805 579.762268,478.446838 579.371521,485.163727 
	C586.834351,484.074493 593.707458,485.152893 599.454590,490.578705 
	C600.078369,491.167664 602.406860,490.214172 603.817444,489.655090 
	C607.492432,488.198456 611.096741,486.563385 615.623901,484.999451 
M528.052185,517.030945 
	C528.035278,518.025696 528.001831,519.020508 528.004150,520.015198 
	C528.014099,524.338867 530.154663,526.795898 534.494080,526.964478 
	C538.510681,527.120544 542.032349,523.469666 541.995361,519.458984 
	C541.958191,515.424194 539.452332,512.774414 534.985779,513.156433 
	C532.686951,513.353088 530.526062,515.162170 528.052185,517.030945 
M675.936584,515.754028 
	C672.163879,512.543030 667.595581,511.899292 665.030212,514.611328 
	C662.412659,517.378479 662.022278,520.871704 664.098083,524.074097 
	C666.122009,527.196411 669.107239,527.908020 672.589294,526.118958 
	C676.752441,523.980042 678.392578,521.011353 675.936584,515.754028 
M591.612244,467.974762 
	C598.317932,467.974762 605.023621,467.974762 612.533997,467.974762 
	C611.429871,466.923340 610.918884,466.317535 610.297302,465.862915 
	C602.686951,460.296814 594.729614,461.112671 591.612244,467.974762 
M567.465332,478.000061 
	C564.879456,478.000061 562.293579,478.000061 559.707642,478.000061 
	C559.541382,478.521484 559.375122,479.042908 559.208862,479.564331 
	C563.435242,481.676880 567.661621,483.789429 572.286804,486.101318 
	C573.304565,482.572266 573.923706,480.425385 574.623108,478.000061 
	C572.348999,478.000061 570.359375,478.000061 567.465332,478.000061 
M636.962585,482.575256 
	C638.713623,481.279175 640.464661,479.983063 643.143799,478.000000 
	C639.722168,478.000000 637.476013,478.000000 635.229797,478.000000 
	C632.862427,478.000000 630.495056,478.000000 628.014343,478.000000 
	C629.680359,486.029816 630.428101,486.420593 636.962585,482.575256 
z"/>
<path fill="#000000" opacity="1.000000" stroke="none" 
	d="
M418.695404,742.356018 
	C420.608582,749.982544 422.309387,757.235474 424.077148,764.773926 
	C417.321259,764.773926 410.883575,764.773926 403.467316,764.773926 
	C406.818390,749.908142 410.086243,735.411316 413.354126,720.914551 
	C413.590698,720.862183 413.827271,720.809753 414.063843,720.757324 
	C415.536896,727.832336 417.009949,734.907349 418.695404,742.356018 
z"/>
<path fill="#000000" opacity="1.000000" stroke="none" 
	d="
M576.299438,339.213074 
	C580.426147,335.761261 584.843201,334.782501 589.818604,334.931641 
	C598.138855,335.181000 606.484985,335.289795 614.796143,334.919037 
	C623.244385,334.542145 631.945557,343.423035 631.195740,352.126617 
	C630.330444,362.170044 625.238892,367.980835 615.131958,367.997253 
	C605.971497,368.012115 596.810669,367.955170 587.650635,368.015839 
	C581.093079,368.059265 575.552551,365.932068 572.524536,359.901276 
	C569.316284,353.511536 570.664001,343.137115 576.299438,339.213074 
M617.806702,361.961700 
	C624.202271,358.961670 626.279480,354.991913 624.965942,348.279602 
	C624.237305,344.556458 620.032837,341.115967 615.473999,341.047150 
	C605.827515,340.901581 596.173462,340.837006 586.530029,341.062134 
	C580.140930,341.211304 576.772156,345.646637 577.000793,352.817810 
	C577.178711,358.400391 581.011230,361.970551 586.976440,361.990173 
	C596.957703,362.023010 606.939087,361.995575 617.806702,361.961700 
z"/>
<path fill="#000000" opacity="1.000000" stroke="none" 
	d="
M692.371948,782.189270 
	C691.330017,788.061279 687.294495,792.579346 682.763428,792.995117 
	C675.321716,793.678040 672.068726,791.659485 669.933533,784.640381 
	C666.952820,774.841919 667.053345,764.965149 669.949707,755.177795 
	C671.911743,748.547974 674.822266,746.712280 681.950623,747.000610 
	C686.599792,747.188660 690.649658,750.976318 692.023804,756.164795 
	C694.282288,764.692810 694.738159,773.236572 692.371948,782.189270 
z"/>
<path fill="#5A4AE3" opacity="1.000000" stroke="none" 
	d="
M621.857605,508.631470 
	C617.546692,514.529541 612.290833,518.411865 605.482605,520.010742 
	C597.661194,521.847595 586.593628,517.699829 582.054871,511.235870 
	C576.526978,503.363312 576.407837,499.370300 577.413879,490.184052 
	C578.481567,490.451416 579.572571,491.064758 580.544861,490.913635 
	C587.608093,489.815918 593.333740,492.355743 598.539124,496.898804 
	C599.445312,497.689667 601.935669,498.187653 602.487732,497.628815 
	C608.635315,491.406647 616.311218,490.112732 624.769165,490.839844 
	C625.544312,496.517670 625.212769,502.614685 621.857605,508.631470 
z"/>
<path fill="#5A4AE3" opacity="1.000000" stroke="none" 
	d="
M572.027588,504.626465 
	C571.623474,505.698669 571.200012,506.907959 570.770508,506.910095 
	C551.948853,507.004303 533.117432,507.327393 514.309631,506.808502 
	C507.805664,506.629059 500.829010,506.003662 495.479034,501.109222 
	C493.001556,498.842743 490.577637,496.517670 487.177765,493.325684 
	C515.867615,493.325684 543.053345,493.325684 570.486206,493.325684 
	C570.980408,496.863037 571.492920,500.531708 572.027588,504.626465 
z"/>
<path fill="#5A4AE3" opacity="1.000000" stroke="none" 
	d="
M671.998779,506.999451 
	C657.525940,506.999451 643.552734,506.999451 629.660034,506.999451 
	C630.280396,502.401978 630.867432,498.051331 631.503662,493.335999 
	C658.575256,493.335999 685.902832,493.335999 713.661499,493.335999 
	C709.136108,501.333893 702.355347,505.217621 693.764404,505.946045 
	C686.696716,506.545349 679.588623,506.666412 671.998779,506.999451 
z"/>
<path fill="#5A4AE3" opacity="1.000000" stroke="none" 
	d="
M615.176575,484.999451 
	C611.096741,486.563385 607.492432,488.198456 603.817444,489.655090 
	C602.406860,490.214172 600.078369,491.167664 599.454590,490.578705 
	C593.707458,485.152893 586.834351,484.074493 579.371521,485.163727 
	C579.762268,478.446838 582.655334,472.993805 590.425598,473.838104 
	C597.488281,474.605530 604.700012,474.000427 611.846069,474.000580 
	C618.955139,474.000702 620.291931,474.918945 622.758179,481.650543 
	C623.092957,482.564362 623.179443,483.569153 623.478699,484.999451 
	C620.777893,484.999451 618.200867,484.999451 615.176575,484.999451 
z"/>
<path fill="#5A4AE3" opacity="1.000000" stroke="none" 
	d="
M528.177490,516.636780 
	C530.526062,515.162170 532.686951,513.353088 534.985779,513.156433 
	C539.452332,512.774414 541.958191,515.424194 541.995361,519.458984 
	C542.032349,523.469666 538.510681,527.120544 534.494080,526.964478 
	C530.154663,526.795898 528.014099,524.338867 528.004150,520.015198 
	C528.001831,519.020508 528.035278,518.025696 528.177490,516.636780 
z"/>
<path fill="#5A4AE3" opacity="1.000000" stroke="none" 
	d="
M676.030396,516.150513 
	C678.392578,521.011353 676.752441,523.980042 672.589294,526.118958 
	C669.107239,527.908020 666.122009,527.196411 664.098083,524.074097 
	C662.022278,520.871704 662.412659,517.378479 665.030212,514.611328 
	C667.595581,511.899292 672.163879,512.543030 676.030396,516.150513 
z"/>
<path fill="#5A4AE3" opacity="1.000000" stroke="none" 
	d="
M591.233582,467.904053 
	C594.729614,461.112671 602.686951,460.296814 610.297302,465.862915 
	C610.918884,466.317535 611.429871,466.923340 612.533997,467.974762 
	C605.023621,467.974762 598.317932,467.974762 591.233582,467.904053 
z"/>
<path fill="#5A4AE3" opacity="1.000000" stroke="none" 
	d="
M567.917603,478.000061 
	C570.359375,478.000061 572.348999,478.000061 574.623108,478.000061 
	C573.923706,480.425385 573.304565,482.572266 572.286804,486.101318 
	C567.661621,483.789429 563.435242,481.676880 559.208862,479.564331 
	C559.375122,479.042908 559.541382,478.521484 559.707642,478.000061 
	C562.293579,478.000061 564.879456,478.000061 567.917603,478.000061 
z"/>
<path fill="#5A4AE3" opacity="1.000000" stroke="none" 
	d="
M636.678833,482.825073 
	C630.428101,486.420593 629.680359,486.029816 628.014343,478.000000 
	C630.495056,478.000000 632.862427,478.000000 635.229797,478.000000 
	C637.476013,478.000000 639.722168,478.000000 643.143799,478.000000 
	C640.464661,479.983063 638.713623,481.279175 636.678833,482.825073 
z"/>
<path fill="#5A4AE3" opacity="1.000000" stroke="none" 
	d="
M617.363586,361.977600 
	C606.939087,361.995575 596.957703,362.023010 586.976440,361.990173 
	C581.011230,361.970551 577.178711,358.400391 577.000793,352.817810 
	C576.772156,345.646637 580.140930,341.211304 586.530029,341.062134 
	C596.173462,340.837006 605.827515,340.901581 615.473999,341.047150 
	C620.032837,341.115967 624.237305,344.556458 624.965942,348.279602 
	C626.279480,354.991913 624.202271,358.961670 617.363586,361.977600 
z"/>
</svg>